<svg width="152" height="25" viewBox="0 0 152 25" fill="none" xmlns="http://www.w3.org/2000/svg">
<path d="M0.53125 19V16.5977L2.30078 16.2227V4.72656L0.53125 4.35156V1.9375H14.1602V6.85938H11.0547L10.9609 5.10156H6.41406V8.60547H11.8633V11.7578H6.41406V15.8242H11.1836L11.2773 13.9844H14.3477V19H0.53125ZM15.8594 19V16.5977L17.3359 16.2227V9.10938L15.5781 8.73438V6.32031H21.2266L21.3672 8.08984C21.7891 7.45703 22.3047 6.96484 22.9141 6.61328C23.5312 6.26172 24.2305 6.08594 25.0117 6.08594C26.1992 6.08594 27.1367 6.48828 27.8242 7.29297C28.5117 8.09766 28.8555 9.375 28.8555 11.125V16.2227L30.332 16.5977V19H23.5352V16.5977L24.7305 16.2227V11.1133C24.7305 10.4336 24.5938 9.95312 24.3203 9.67188C24.0469 9.38281 23.6562 9.23828 23.1484 9.23828C22.4297 9.23828 21.8633 9.51172 21.4492 10.0586V16.2227L22.5039 16.5977V19H15.8594ZM32.0781 24.1211C31.7109 24.1211 31.3789 24.1055 31.082 24.0742C30.7852 24.0508 30.4766 24.0039 30.1562 23.9336L30.3438 20.8281C30.5469 20.875 30.7227 20.9102 30.8711 20.9336C31.0273 20.9648 31.2305 20.9805 31.4805 20.9805C32.3945 20.9805 32.8516 20.3594 32.8516 19.1172V9.10938L31.0703 8.73438V6.32031H36.9414V19.1172C36.9414 20.7188 36.5156 21.9531 35.6641 22.8203C34.8125 23.6875 33.6172 24.1211 32.0781 24.1211ZM32.6641 3.91797V0.71875H36.8945V3.91797H32.6641ZM44.9805 19.2461C43.6758 19.2461 42.5586 18.9766 41.6289 18.4375C40.707 17.8906 40 17.1328 39.5078 16.1641C39.0234 15.1875 38.7812 14.0586 38.7812 12.7773V12.543C38.7812 11.2773 39.0234 10.1602 39.5078 9.19141C40 8.22266 40.707 7.46484 41.6289 6.91797C42.5508 6.36328 43.6602 6.08594 44.957 6.08594C46.2617 6.08594 47.3711 6.35938 48.2852 6.90625C49.207 7.45312 49.9102 8.21094 50.3945 9.17969C50.8867 10.1484 51.1328 11.2695 51.1328 12.543V12.7773C51.1328 14.0508 50.8867 15.1758 50.3945 16.1523C49.9102 17.1211 49.207 17.8789 48.2852 18.4258C47.3711 18.9727 46.2695 19.2461 44.9805 19.2461ZM44.9805 16.1172C45.7305 16.1172 46.2617 15.8203 46.5742 15.2266C46.8867 14.625 47.043 13.8086 47.043 12.7773V12.543C47.043 11.543 46.8828 10.7422 46.5625 10.1406C46.25 9.53125 45.7148 9.22656 44.957 9.22656C44.1992 9.22656 43.6641 9.53125 43.3516 10.1406C43.0469 10.7422 42.8945 11.543 42.8945 12.543V12.7773C42.8945 13.8164 43.0469 14.6328 43.3516 15.2266C43.6641 15.8203 44.207 16.1172 44.9805 16.1172ZM56.125 24.1211C55.4297 24.1211 54.6953 24.0078 53.9219 23.7812L54.4141 20.8398C54.7031 20.918 55.0039 20.957 55.3164 20.957C55.8164 20.957 56.2578 20.8633 56.6406 20.6758C57.0312 20.4961 57.2773 20.2148 57.3789 19.832L57.4961 19.3867L53.418 8.98047L51.7188 8.73438V6.32031H59.3359V8.73438L57.7656 8.96875L59.4648 14.1016L59.4883 14.1953H59.5586L61.5625 8.93359L60.1094 8.73438V6.32031H67.0352V8.73438L65.5352 8.94531L60.7891 20.8516C60.5625 21.4219 60.2578 21.9531 59.875 22.4453C59.4922 22.9453 58.9961 23.3477 58.3867 23.6523C57.7773 23.9648 57.0234 24.1211 56.125 24.1211ZM73.5273 19V16.5977L75.2852 16.2227V4.72656L73.5273 4.35156V1.9375H79.4688L86.3125 12.8594H86.3828V4.72656L84.1445 4.35156V1.9375H91.7969V4.35156L90.0273 4.72656V19H85.9727L79 8.3125H78.9297V16.2227L81.1797 16.5977V19H73.5273ZM96.9531 19.2461C95.7266 19.2461 94.7266 18.8984 93.9531 18.2031C93.1797 17.5078 92.793 16.582 92.793 15.4258C92.793 14.2383 93.2695 13.2656 94.2227 12.5078C95.1836 11.75 96.6328 11.3711 98.5703 11.3711H99.8945V10.6211C99.8945 10.1133 99.75 9.68359 99.4609 9.33203C99.1719 8.97266 98.7148 8.79297 98.0898 8.79297C97.5664 8.79297 97.1094 8.92188 96.7188 9.17969L96.4375 10.7969H93.543L93.4844 7.26953C94.2031 6.94922 94.9531 6.67188 95.7344 6.4375C96.5234 6.20312 97.4023 6.08594 98.3711 6.08594C100.098 6.08594 101.469 6.48438 102.484 7.28125C103.5 8.07031 104.008 9.19922 104.008 10.668V15.3438C104.008 15.5234 104.008 15.6992 104.008 15.8711C104.016 16.043 104.035 16.207 104.066 16.3633L105.438 16.5977V19H100.633C100.531 18.8594 100.422 18.6719 100.305 18.4375C100.188 18.2031 100.105 17.9688 100.059 17.7344C99.6758 18.2109 99.2461 18.582 98.7695 18.8477C98.293 19.1133 97.6875 19.2461 96.9531 19.2461ZM98.2188 16.3398C98.5156 16.3398 98.8125 16.2812 99.1094 16.1641C99.4141 16.0391 99.6758 15.8555 99.8945 15.6133V13.7852H98.6172C98.0625 13.7852 97.6328 13.9062 97.3281 14.1484C97.0312 14.3906 96.8828 14.7109 96.8828 15.1094C96.8828 15.4922 97.0078 15.793 97.2578 16.0117C97.5078 16.2305 97.8281 16.3398 98.2188 16.3398ZM110.922 19.2695C109.594 19.2695 108.582 18.918 107.887 18.2148C107.199 17.5039 106.855 16.3828 106.855 14.8516V9.15625H105.273V6.32031H106.855V3.19141H110.945V6.32031H113.02V9.15625H110.945V14.8398C110.945 15.2539 111.039 15.543 111.227 15.707C111.414 15.8711 111.672 15.9531 112 15.9531C112.141 15.9531 112.281 15.9453 112.422 15.9297C112.562 15.9141 112.703 15.8945 112.844 15.8711L113.125 18.9414C112.383 19.1602 111.648 19.2695 110.922 19.2695ZM119.523 19.2461C118.211 19.2461 117.18 18.832 116.43 18.0039C115.68 17.1758 115.305 15.8945 115.305 14.1602V9.10938L113.945 8.73438V6.32031H119.418V14.1836C119.418 15.457 119.941 16.0938 120.988 16.0938C121.293 16.0938 121.594 16.0391 121.891 15.9297C122.195 15.8125 122.465 15.6406 122.699 15.4141V9.10938L121.316 8.73438V6.32031H126.812V16.2227L128.395 16.5977V19H123.238L122.969 17.5586C122.125 18.6836 120.977 19.2461 119.523 19.2461ZM129.871 19V16.5977L131.348 16.2227V9.10938L129.59 8.73438V6.32031H135.227L135.32 7.86719L135.344 8.18359C135.891 6.78516 136.762 6.08594 137.957 6.08594C138.129 6.08594 138.332 6.10156 138.566 6.13281C138.801 6.15625 139.039 6.20312 139.281 6.27344L138.871 10.0469L137.113 9.96484C136.707 9.94922 136.387 9.99609 136.152 10.1055C135.926 10.207 135.695 10.3789 135.461 10.6211V16.2227L136.938 16.5977V19H129.871ZM146.078 19.2461C144.836 19.2461 143.75 18.9805 142.82 18.4492C141.898 17.9102 141.18 17.1758 140.664 16.2461C140.156 15.3164 139.902 14.2656 139.902 13.0938V12.6602C139.902 11.3711 140.129 10.2305 140.582 9.23828C141.035 8.24609 141.699 7.47266 142.574 6.91797C143.449 6.35547 144.523 6.07812 145.797 6.08594C147.516 6.08594 148.836 6.58203 149.758 7.57422C150.68 8.55859 151.141 9.98438 151.141 11.8516V13.9727H144.168L144.156 14.0547C144.242 14.6484 144.5 15.1406 144.93 15.5312C145.359 15.9219 145.977 16.1172 146.781 16.1172C147.797 16.1172 148.859 15.8633 149.969 15.3555L150.906 17.8398C150.336 18.2461 149.641 18.582 148.82 18.8477C148 19.1133 147.086 19.2461 146.078 19.2461ZM144.168 11.4297H147.391V11.125C147.391 10.4453 147.285 9.93359 147.074 9.58984C146.863 9.23828 146.469 9.0625 145.891 9.0625C145.266 9.0625 144.828 9.28125 144.578 9.71875C144.336 10.1484 144.184 10.6992 144.121 11.3711L144.168 11.4297Z" fill="#FFF8F8"/>
</svg>
